<?xml version="1.0" standalone="no"?>
<!DOCTYPE svg PUBLIC "-//W3C//DTD SVG 20010904//EN"
 "http://www.w3.org/TR/2001/REC-SVG-20010904/DTD/svg10.dtd">
<svg version="1.0" xmlns="http://www.w3.org/2000/svg"
 width="1500.000000pt" height="1500.000000pt" viewBox="0 0 1500.000000 1500.000000"
 preserveAspectRatio="xMidYMid meet">
<metadata>
Created by potrace 1.14, written by Peter Selinger 2001-2017
</metadata>
<g transform="translate(0.000000,1500.000000) scale(0.100000,-0.100000)"
fill="#000000" stroke="none">
<path d="M2180 12155 l0 -665 5320 0 5320 0 0 665 0 665 -5320 0 -5320 0 0
-665z"/>
<path d="M2176 10795 c-3 -16 -6 -33 -7 -37 -1 -4 -5 -27 -11 -50 -5 -24 -12
-54 -14 -68 -3 -14 -21 -104 -41 -200 -19 -96 -36 -184 -38 -195 -2 -11 -11
-56 -20 -100 -9 -44 -18 -91 -21 -105 -2 -14 -7 -36 -10 -50 -3 -14 -8 -36
-10 -50 -2 -14 -7 -36 -10 -50 -3 -14 -8 -36 -10 -50 -3 -14 -16 -77 -29 -140
-13 -63 -26 -130 -29 -147 -14 -81 -19 -106 -46 -238 -16 -77 -32 -156 -35
-175 -3 -19 -11 -55 -16 -80 -6 -25 -13 -56 -15 -70 -3 -14 -19 -92 -36 -175
-16 -82 -31 -159 -33 -170 -1 -11 -10 -56 -20 -100 -9 -44 -19 -91 -21 -105
-2 -14 -7 -36 -10 -50 -3 -14 -8 -36 -10 -50 -2 -14 -7 -36 -10 -50 -3 -14 -8
-36 -10 -50 -3 -14 -18 -90 -35 -170 -16 -80 -32 -161 -35 -180 -3 -19 -22
-111 -41 -205 l-36 -170 -1 -673 -1 -672 333 0 332 0 0 -1995 0 -1995 3325 0
3325 0 0 1995 0 1995 1330 0 1330 0 0 -1995 0 -1995 665 0 665 0 0 1995 0
1995 332 2 333 3 0 659 0 660 -97 485 c-53 267 -99 497 -102 511 -2 14 -30
151 -61 305 -31 154 -58 289 -59 300 -2 11 -15 76 -29 145 -14 69 -28 139 -31
155 -3 17 -35 174 -70 350 -36 176 -67 331 -70 345 -3 14 -12 61 -21 105 -9
44 -18 89 -19 100 -2 11 -6 29 -9 40 -4 11 -9 36 -11 55 -2 20 -12 67 -21 105
-9 39 -18 86 -21 105 -3 19 -9 53 -14 75 -5 22 -11 54 -14 72 -3 17 -10 42
-15 55 l-8 23 -5316 0 -5316 0 -5 -30z m5324 -5955 l0 -1330 -1995 0 -1995 0
0 1330 0 1330 1995 0 1995 0 0 -1330z"/>
</g>
</svg>
